# xmcd CD database file
#
# Track frame offsets:
#	150
#	30541
#	53199
#	73759
#	81771
#	102514
#	128709
#	155461
#	188766
#	221969
#	251241
#	268866
#
# Disc length: 3790 seconds
#
# Revision: 4
# Processed by: cddbd v1.5PL3 Copyright (c) Steve Scherf et al.
# Submitted via: CDex 1.51
#
DISCID=b30ecc0c
DTITLE=TMN - TMN GROOVE GEAR 2
DYEAR=1994
DGENRE=JPop
TTITLE0=GET WILD '89
TTITLE1=HUMAN SYSTEM
TTITLE2=FALLIN' ANGEL
TTITLE3=TELEPHONE LINE [VER.0]
TTITLE4=TELEPHONE LINE [LOVER'S MIX]
TTITLE5=STILL LOVE HER
TTITLE6=COME ON EVERYBODY [LIVE VERSION]
TTITLE7=KISS YOU [LIVE VERSION]
TTITLE8=BURNIN' STREET [LIVE VERSION]
TTITLE9=GET WILD [LIVE VERSION]
TTITLE10=DAWN VALLEY
TTITLE11=THIS NIGHT [VER.0]
EXTD=YEAR: 1994
EXTT0=
EXTT1=
EXTT2=
EXTT3=
EXTT4=
EXTT5=
EXTT6=
EXTT7=
EXTT8=
EXTT9=
EXTT10=
EXTT11=
PLAYORDER=
